<svg xmlns="http://www.w3.org/2000/svg" xmlns:xlink="http://www.w3.org/1999/xlink" version="1.1" id="Layer_1" x="0px" y="0px" width="250px" height="250px" viewBox="0 0 250 250" enable-background="new 0 0 250 250" xml:space="preserve">
  <g xmlns="http://www.w3.org/2000/svg" transform="translate(0.000000,250.000000) scale(0.100000,-0.100000)" stroke="none">
    <path class="svg svg-facebook" d="M72 2480 c-18 -11 -41 -34 -52 -52 -20 -32 -20 -53 -20 -1178 0 -1125 0 -1146 20 -1178 11 -18 34 -41 52 -52 32 -19 52 -20 651 -20 l617 0 -2 482 -3 483 -162 3 -163 2 0 190 0 190 165 0 165 0 0 193 c0 213 7 256 62 360 53 99 148 169 275 202 60 16 259 20 372 9 l61 -7 0 -167 0 -168 -144 -4 c-127 -3 -148 -5 -173 -24 -54 -40 -63 -73 -63 -241 l0 -153 185 0 c102 0 185 -2 185 -4 0 -8 -40 -313 -45 -343 l-6 -33 -159 0 -160 0 0 -485 0 -485 333 0 c314 0 334 1 365 20 18 11 41 34 52 52 20 32 20 53 20 1178 0 1125 0 1146 -20 1178 -11 18 -34 41 -52 52 -32 20 -53 20 -1178 20 -1125 0 -1146 0 -1178 -20z"/>
  </g>
</svg>