<svg xmlns="http://www.w3.org/2000/svg" xmlns:xlink="http://www.w3.org/1999/xlink" version="1.1" id="Calque_1" x="0px" y="0px" width="250px" height="250px" viewBox="0 0 250 250" enable-background="new 0 0 250 250" xml:space="preserve">
  <g xmlns="http://www.w3.org/2000/svg" transform="translate(0.000000,250.000000) scale(0.100000,-0.100000)" class="svg svg-linkedin" stroke="none">
    <path d="M115 2475 c-42 -20 -59 -35 -84 -75 l-21 -35 0 -1108 c0 -918 2 -1113 14 -1140 16 -39 61 -82 99 -96 19 -8 375 -11 1127 -11 752 0 1108 3 1127 11 34 13 80 55 99 91 12 23 14 201 14 1139 l0 1112 -25 43 c-16 28 -39 49 -68 63 -43 21 -46 21 -1148 21 -928 -1 -1109 -3 -1134 -15z m567 -361 c129 -90 124 -283 -8 -360 -90 -53 -184 -42 -261 29 -79 73 -91 183 -29 275 45 67 102 95 188 90 55 -3 75 -9 110 -34z m1200 -553 c73 -28 150 -98 182 -164 57 -117 59 -137 64 -600 l4 -427 -189 2 -188 3 -5 375 -5 376 -25 48 c-33 64 -74 86 -158 86 -100 0 -151 -31 -189 -115 -16 -35 -19 -82 -23 -405 l-5 -365 -185 0 -185 0 -3 593 -2 592 180 0 180 0 0 -76 0 -76 45 50 c54 60 97 88 173 113 80 27 253 21 334 -10z m-1134 -593 l-3 -593 -185 0 -185 0 -3 593 -2 592 190 0 190 0 -2 -592z"/>
  </g>
</svg>