<svg xmlns="http://www.w3.org/2000/svg" xmlns:xlink="http://www.w3.org/1999/xlink" version="1.1" id="Calque_1" x="0px" y="0px" width="500px" height="500px" viewBox="0 0 500 500" enable-background="new 0 0 500 500" xml:space="preserve">
  <g xmlns="http://www.w3.org/2000/svg" transform="translate(0.000000,500.000000) scale(0.100000,-0.100000)" stroke="none">
    <path class="svg svg-tumblr" d="M0 2500 l0 -2500 2500 0 2500 0 0 2500 0 2500 -2500 0 -2500 0 0 -2500z m2530 1295 c0 -239 3 -434 8 -434 4 1 186 1 405 0 l397 -1 0 -270 0 -270 -405 0 -405 0 0 -544 c0 -677 5 -719 92 -805 65 -65 195 -110 314 -111 134 0 314 52 446 129 l67 39 3 -271 3 -271 -70 -32 c-104 -48 -264 -101 -379 -126 -87 -19 -132 -22 -326 -23 -245 0 -302 8 -456 62 -195 69 -366 208 -437 353 -66 133 -67 150 -67 916 l0 684 -190 0 -190 0 0 246 0 245 30 11 c64 22 197 91 255 133 70 50 177 159 224 228 81 118 156 330 177 495 l7 52 248 0 249 0 0 -435z"/>
  </g>
</svg>